<svg width="1920" height="591" viewBox="0 0 1920 591" fill="none" xmlns="http://www.w3.org/2000/svg">
<rect width="1920" height="591" fill="#363434"/>
<path d="M248.4 495C244.44 495 241.38 493.92 239.22 491.76C237.06 489.24 235.98 486.18 235.98 482.58V129.96C235.98 126 237.06 122.94 239.22 120.78C241.38 118.26 244.44 117 248.4 117H275.94C279.9 117 282.96 118.26 285.12 120.78C287.64 122.94 288.9 126 288.9 129.96V279H474.66V129.96C474.66 126 475.74 122.94 477.9 120.78C480.42 118.26 483.48 117 487.08 117H514.62C518.58 117 521.64 118.26 523.8 120.78C526.32 122.94 527.58 126 527.58 129.96V482.58C527.58 486.18 526.32 489.24 523.8 491.76C521.64 493.92 518.58 495 514.62 495H487.08C483.48 495 480.42 493.92 477.9 491.76C475.74 489.24 474.66 486.18 474.66 482.58V327.6H288.9V482.58C288.9 486.18 287.64 489.24 285.12 491.76C282.96 493.92 279.9 495 275.94 495H248.4ZM795.901 500.4C758.821 500.4 729.301 489.06 707.341 466.38C685.381 443.34 673.321 412.02 671.161 372.42C670.801 367.74 670.621 361.8 670.621 354.6C670.621 347.04 670.801 340.92 671.161 336.24C672.601 310.68 678.541 288.36 688.981 269.28C699.421 249.84 713.641 234.9 731.641 224.46C750.001 214.02 771.421 208.8 795.901 208.8C823.261 208.8 846.121 214.56 864.481 226.08C883.201 237.6 897.421 253.98 907.141 275.22C916.861 296.46 921.721 321.3 921.721 349.74V358.92C921.721 362.88 920.461 365.94 917.941 368.1C915.781 370.26 912.901 371.34 909.301 371.34H722.461C722.461 371.7 722.461 372.42 722.461 373.5C722.461 374.58 722.461 375.48 722.461 376.2C723.181 390.96 726.421 404.82 732.181 417.78C737.941 430.38 746.221 440.64 757.021 448.56C767.821 456.48 780.781 460.44 795.901 460.44C808.861 460.44 819.661 458.46 828.301 454.5C836.941 450.54 843.961 446.22 849.361 441.54C854.761 436.5 858.361 432.72 860.161 430.2C863.401 425.52 865.921 422.82 867.721 422.1C869.521 421.02 872.401 420.48 876.361 420.48H902.281C905.881 420.48 908.761 421.56 910.921 423.72C913.441 425.52 914.521 428.22 914.161 431.82C913.801 437.22 910.921 443.88 905.521 451.8C900.121 459.36 892.381 466.92 882.301 474.48C872.221 482.04 859.981 488.34 845.581 493.38C831.181 498.06 814.621 500.4 795.901 500.4ZM722.461 334.08H870.421V332.46C870.421 316.26 867.361 301.86 861.241 289.26C855.481 276.66 847.021 266.76 835.861 259.56C824.701 252 811.381 248.22 795.901 248.22C780.421 248.22 767.101 252 755.941 259.56C745.141 266.76 736.861 276.66 731.101 289.26C725.341 301.86 722.461 316.26 722.461 332.46V334.08ZM1069.45 495C1065.85 495 1062.79 493.92 1060.27 491.76C1058.11 489.24 1057.03 486.18 1057.03 482.58V124.02C1057.03 120.42 1058.11 117.54 1060.27 115.38C1062.79 112.86 1065.85 111.6 1069.45 111.6H1094.83C1098.79 111.6 1101.85 112.86 1104.01 115.38C1106.17 117.54 1107.25 120.42 1107.25 124.02V482.58C1107.25 486.18 1106.17 489.24 1104.01 491.76C1101.85 493.92 1098.79 495 1094.83 495H1069.45ZM1270.96 495C1267.36 495 1264.3 493.92 1261.78 491.76C1259.62 489.24 1258.54 486.18 1258.54 482.58V124.02C1258.54 120.42 1259.62 117.54 1261.78 115.38C1264.3 112.86 1267.36 111.6 1270.96 111.6H1296.34C1300.3 111.6 1303.36 112.86 1305.52 115.38C1307.68 117.54 1308.76 120.42 1308.76 124.02V482.58C1308.76 486.18 1307.68 489.24 1305.52 491.76C1303.36 493.92 1300.3 495 1296.34 495H1270.96ZM1574.53 500.4C1547.17 500.4 1524.31 495.18 1505.95 484.74C1487.59 474.3 1473.55 459.9 1463.83 441.54C1454.11 422.82 1448.71 401.58 1447.63 377.82C1447.27 371.7 1447.09 363.96 1447.09 354.6C1447.09 344.88 1447.27 337.14 1447.63 331.38C1448.71 307.26 1454.11 286.02 1463.83 267.66C1473.91 249.3 1488.13 234.9 1506.49 224.46C1524.85 214.02 1547.53 208.8 1574.53 208.8C1601.53 208.8 1624.21 214.02 1642.57 224.46C1660.93 234.9 1674.97 249.3 1684.69 267.66C1694.77 286.02 1700.35 307.26 1701.43 331.38C1701.79 337.14 1701.97 344.88 1701.97 354.6C1701.97 363.96 1701.79 371.7 1701.43 377.82C1700.35 401.58 1694.95 422.82 1685.23 441.54C1675.51 459.9 1661.47 474.3 1643.11 484.74C1624.75 495.18 1601.89 500.4 1574.53 500.4ZM1574.53 458.82C1596.85 458.82 1614.67 451.8 1627.99 437.76C1641.31 423.36 1648.51 402.48 1649.59 375.12C1649.95 369.72 1650.13 362.88 1650.13 354.6C1650.13 346.32 1649.95 339.48 1649.59 334.08C1648.51 306.72 1641.31 286.02 1627.99 271.98C1614.67 257.58 1596.85 250.38 1574.53 250.38C1552.21 250.38 1534.21 257.58 1520.53 271.98C1507.21 286.02 1500.19 306.72 1499.47 334.08C1499.11 339.48 1498.93 346.32 1498.93 354.6C1498.93 362.88 1499.11 369.72 1499.47 375.12C1500.19 402.48 1507.21 423.36 1520.53 437.76C1534.21 451.8 1552.21 458.82 1574.53 458.82Z" fill="#3A3A3A"/>
</svg>
