<svg width="96" height="39" viewBox="0 0 96 39" fill="none" xmlns="http://www.w3.org/2000/svg">
<path d="M28.9763 29.793C28.7538 29.793 28.5717 29.7222 28.4301 29.5806C28.3087 29.439 28.248 29.2671 28.248 29.0648V27.3351C28.248 27.153 28.2884 26.9811 28.3694 26.8192C28.4705 26.6372 28.5717 26.4855 28.6729 26.3641L36.4411 17.1696H29.219C29.0167 17.1696 28.8448 17.1089 28.7032 16.9875C28.5616 16.8459 28.4907 16.6639 28.4907 16.4413V14.742C28.4907 14.5397 28.5616 14.3678 28.7032 14.2262C28.8448 14.0845 29.0167 14.0138 29.219 14.0138H40.7198C40.9423 14.0138 41.1142 14.0845 41.2356 14.2262C41.3772 14.3678 41.448 14.5397 41.448 14.742V16.5931C41.448 16.7751 41.4075 16.937 41.3266 17.0786C41.2457 17.2202 41.1446 17.3719 41.0232 17.5338L33.437 26.6372H41.3569C41.5593 26.6372 41.7312 26.708 41.8728 26.8496C42.0144 26.971 42.0852 27.1429 42.0852 27.3654V29.0648C42.0852 29.2671 42.0144 29.439 41.8728 29.5806C41.7312 29.7222 41.5593 29.793 41.3569 29.793H28.9763ZM49.7398 30.0965C48.6878 30.0965 47.737 29.8942 46.8874 29.4896C46.0377 29.0648 45.3599 28.5085 44.8542 27.8206C44.3687 27.1126 44.1259 26.3236 44.1259 25.4537C44.1259 24.0376 44.6924 22.9149 45.8253 22.0855C46.9784 21.2358 48.4956 20.6694 50.377 20.3862L54.5343 19.7793V19.142C54.5343 18.2924 54.3218 17.6349 53.897 17.1696C53.4721 16.7043 52.7439 16.4717 51.7121 16.4717C50.9839 16.4717 50.3871 16.6234 49.9218 16.9269C49.4768 17.2101 49.143 17.5944 48.9205 18.08C48.7586 18.343 48.526 18.4744 48.2225 18.4744H45.8253C45.6027 18.4744 45.4308 18.4137 45.3094 18.2924C45.2083 18.171 45.1577 18.0092 45.1577 17.8069C45.1779 17.4832 45.3094 17.0887 45.5521 16.6234C45.7949 16.1581 46.1793 15.7131 46.7053 15.2882C47.2313 14.8432 47.9089 14.4689 48.7383 14.1655C49.5678 13.862 50.5691 13.7103 51.7425 13.7103C53.017 13.7103 54.0892 13.8721 54.9591 14.1958C55.8491 14.4993 56.557 14.914 57.0833 15.44C57.6091 15.9659 57.9937 16.583 58.2364 17.291C58.4792 17.999 58.6006 18.7475 58.6006 19.5365V29.0648C58.6006 29.2671 58.5294 29.439 58.3882 29.5806C58.2464 29.7222 58.0742 29.793 57.8723 29.793H55.4144C55.1915 29.793 55.0096 29.7222 54.868 29.5806C54.7466 29.439 54.6859 29.2671 54.6859 29.0648V27.8813C54.4229 28.2657 54.0689 28.6298 53.6239 28.9737C53.1788 29.2974 52.6326 29.5705 51.9853 29.793C51.3582 29.9953 50.6096 30.0965 49.7398 30.0965ZM50.7715 27.2137C51.4795 27.2137 52.1168 27.062 52.6832 26.7586C53.2699 26.4551 53.725 25.9898 54.0487 25.3627C54.3926 24.7154 54.5646 23.9061 54.5646 22.9351V22.2979L51.5301 22.7834C50.3365 22.9655 49.4464 23.2588 48.8598 23.6634C48.2731 24.068 47.9797 24.5636 47.9797 25.1503C47.9797 25.5954 48.1113 25.9797 48.3743 26.3034C48.6575 26.6068 49.0114 26.8395 49.4363 27.0013C49.8611 27.1429 50.3062 27.2137 50.7715 27.2137ZM63.2218 29.793C63.0193 29.793 62.8472 29.7222 62.7059 29.5806C62.5642 29.439 62.4935 29.2671 62.4935 29.0648V14.7724C62.4935 14.5499 62.5642 14.3678 62.7059 14.2262C62.8472 14.0845 63.0193 14.0138 63.2218 14.0138H65.6797C65.8817 14.0138 66.0538 14.0845 66.1956 14.2262C66.3573 14.3678 66.4384 14.5499 66.4384 14.7724V16.0165C66.9035 15.3692 67.5004 14.8735 68.2287 14.5296C68.9768 14.1857 69.837 14.0138 70.808 14.0138H72.0521C72.2745 14.0138 72.4466 14.0845 72.568 14.2262C72.7093 14.3678 72.7804 14.5397 72.7804 14.742V16.9269C72.7804 17.1292 72.7093 17.3011 72.568 17.4427C72.4466 17.5843 72.2745 17.6551 72.0521 17.6551H69.6852C68.7142 17.6551 67.9556 17.9282 67.4094 18.4744C66.883 19.0206 66.6204 19.7692 66.6204 20.72V29.0648C66.6204 29.2671 66.5493 29.439 66.408 29.5806C66.2662 29.7222 66.0842 29.793 65.8618 29.793H63.2218ZM82.2778 29.793C81.064 29.793 80.0428 29.5806 79.213 29.1558C78.3837 28.731 77.7669 28.1038 77.3619 27.2744C76.9575 26.4248 76.755 25.3728 76.755 24.1186V17.2303H74.3578C74.1559 17.2303 73.9837 17.1595 73.8419 17.0179C73.7007 16.8763 73.6295 16.7043 73.6295 16.502V14.742C73.6295 14.5397 73.7007 14.3678 73.8419 14.2262C73.9837 14.0845 74.1559 14.0138 74.3578 14.0138H76.755V8.97653C76.755 8.77422 76.8157 8.6023 76.9371 8.46067C77.0789 8.31905 77.261 8.24826 77.4833 8.24826H79.9412C80.1437 8.24826 80.3159 8.31905 80.4571 8.46067C80.5989 8.6023 80.6695 8.77422 80.6695 8.97653V14.0138H84.4626C84.6651 14.0138 84.8372 14.0845 84.9785 14.2262C85.1203 14.3678 85.1909 14.5397 85.1909 14.742V16.502C85.1909 16.7043 85.1203 16.8763 84.9785 17.0179C84.8372 17.1595 84.6651 17.2303 84.4626 17.2303H80.6695V23.8151C80.6695 24.6445 80.8113 25.2919 81.0943 25.7572C81.3978 26.2224 81.9137 26.4551 82.6419 26.4551H84.7357C84.9382 26.4551 85.1103 26.5259 85.2516 26.6675C85.3934 26.8091 85.464 26.9811 85.464 27.1834V29.0648C85.464 29.2671 85.3934 29.439 85.2516 29.5806C85.1103 29.7222 84.9382 29.793 84.7357 29.793H82.2778Z" fill="#333333"/>
<path d="M91.4612 29.9978C90.8725 29.9978 90.366 29.7894 89.9423 29.3728C89.518 28.9489 89.3062 28.4389 89.3062 27.8426C89.3062 27.2535 89.518 26.7506 89.9423 26.334C90.366 25.9101 90.8725 25.6982 91.4612 25.6982C92.0504 25.6982 92.5569 25.9101 92.9806 26.334C93.4049 26.7506 93.6168 27.2535 93.6168 27.8426C93.6168 28.2377 93.5158 28.6005 93.315 28.9309C93.1208 29.2542 92.862 29.5128 92.5393 29.7068C92.2159 29.9008 91.8568 29.9978 91.4612 29.9978Z" fill="#333333"/>
<path d="M13.7932 30.8965C11.4966 30.8965 9.42527 30.3678 7.57936 29.3103C5.73346 28.2299 4.28463 26.7471 3.23289 24.862C2.18114 22.954 1.65527 20.8276 1.65527 18.4827C1.65527 16.1379 2.18114 14.023 3.23289 12.1379C4.28463 10.2299 5.73346 8.74713 7.57936 7.68964C9.42527 6.6092 11.4966 6.06895 13.7932 6.06895C16.0899 6.06895 18.1612 6.6092 20.0071 7.68964C21.853 8.74713 23.3018 10.2184 24.3536 12.1034C25.4053 13.9885 25.9312 16.1149 25.9312 18.4827C25.9312 20.8506 25.4053 22.977 24.3536 24.862C23.3018 26.7471 21.853 28.2299 20.0071 29.3103C18.1612 30.3678 16.0899 30.8965 13.7932 30.8965ZM13.7932 26.9655C15.2957 26.9655 16.6479 26.6092 17.8499 25.8965C19.0519 25.1609 19.9964 24.1494 20.6832 22.862C21.37 21.5517 21.7134 20.092 21.7134 18.4827C21.7134 16.8735 21.37 15.4253 20.6832 14.1379C19.9964 12.8276 19.0519 11.8161 17.8499 11.1034C16.6479 10.3678 15.2957 9.99999 13.7932 9.99999C12.2907 9.99999 10.9385 10.3678 9.7365 11.1034C8.53451 11.8161 7.59007 12.8276 6.90322 14.1379C6.21644 15.4253 5.87299 16.8735 5.87299 18.4827C5.87299 20.092 6.21644 21.5517 6.90322 22.862C7.59007 24.1494 8.53451 25.1609 9.7365 25.8965C10.9385 26.6092 12.2907 26.9655 13.7932 26.9655Z" fill="#333333"/>
<path d="M14.0688 2.20689V35.3102" stroke="#333333" stroke-width="5"/>
</svg>
