<svg width="24" height="25" viewBox="0 0 24 25" fill="none" xmlns="http://www.w3.org/2000/svg">
<path d="M1.5 5.28445C1.5 5.48337 1.57902 5.67413 1.71967 5.81478C1.86032 5.95544 2.05109 6.03445 2.25 6.03445H21.75C21.9489 6.03445 22.1397 5.95544 22.2803 5.81478C22.421 5.67413 22.5 5.48337 22.5 5.28445C22.5 5.08554 22.421 4.89478 22.2803 4.75412C22.1397 4.61347 21.9489 4.53445 21.75 4.53445H2.25C2.05109 4.53445 1.86032 4.61347 1.71967 4.75412C1.57902 4.89478 1.5 5.08554 1.5 5.28445ZM5.25 11.2845H21.75C21.9489 11.2845 22.1397 11.3635 22.2803 11.5041C22.421 11.6448 22.5 11.8355 22.5 12.0345C22.5 12.2334 22.421 12.4241 22.2803 12.5648C22.1397 12.7054 21.9489 12.7845 21.75 12.7845H5.25C5.05109 12.7845 4.86032 12.7054 4.71967 12.5648C4.57902 12.4241 4.5 12.2334 4.5 12.0345C4.5 11.8355 4.57902 11.6448 4.71967 11.5041C4.86032 11.3635 5.05109 11.2845 5.25 11.2845ZM12 18.0345H21.75C21.9489 18.0345 22.1397 18.1135 22.2803 18.2541C22.421 18.3948 22.5 18.5855 22.5 18.7845C22.5 18.9834 22.421 19.1741 22.2803 19.3148C22.1397 19.4554 21.9489 19.5345 21.75 19.5345H12C11.8011 19.5345 11.6103 19.4554 11.4697 19.3148C11.329 19.1741 11.25 18.9834 11.25 18.7845C11.25 18.5855 11.329 18.3948 11.4697 18.2541C11.6103 18.1135 11.8011 18.0345 12 18.0345Z" fill="#333333"/>
</svg>
