<svg width="1920" height="516" viewBox="0 0 1920 516" fill="none" xmlns="http://www.w3.org/2000/svg">
<rect width="1920" height="516" fill="white"/>
<path d="M374 328C371.8 328 370.1 327.4 368.9 326.2C367.7 324.8 367.1 323.1 367.1 321.1V125.2C367.1 123 367.7 121.3 368.9 120.1C370.1 118.7 371.8 118 374 118H450.2C465 118 477.8 120.4 488.6 125.2C499.6 130 508.1 137.2 514.1 146.8C520.1 156.2 523.1 168 523.1 182.2C523.1 196.4 520.1 208.2 514.1 217.6C508.1 227 499.6 234.1 488.6 238.9C477.8 243.7 465 246.1 450.2 246.1H397.1V321.1C397.1 323.1 396.4 324.8 395 326.2C393.8 327.4 392.1 328 389.9 328H374ZM396.8 220.9H448.7C463.5 220.9 474.6 217.6 482 211C489.4 204.4 493.1 194.8 493.1 182.2C493.1 169.8 489.5 160.2 482.3 153.4C475.1 146.6 463.9 143.2 448.7 143.2H396.8V220.9ZM601.58 328C599.58 328 597.88 327.4 596.48 326.2C595.28 324.8 594.68 323.1 594.68 321.1V179.2C594.68 177.2 595.28 175.5 596.48 174.1C597.88 172.7 599.58 172 601.58 172H615.38C617.38 172 619.08 172.7 620.48 174.1C621.88 175.5 622.58 177.2 622.58 179.2V192.4C626.58 185.6 632.08 180.5 639.08 177.1C646.08 173.7 654.48 172 664.28 172H676.28C678.28 172 679.88 172.7 681.08 174.1C682.28 175.3 682.88 176.9 682.88 178.9V191.2C682.88 193.2 682.28 194.8 681.08 196C679.88 197.2 678.28 197.8 676.28 197.8H658.28C647.48 197.8 638.98 201 632.78 207.4C626.58 213.6 623.48 222.1 623.48 232.9V321.1C623.48 323.1 622.78 324.8 621.38 326.2C619.98 327.4 618.28 328 616.28 328H601.58ZM808.616 331C793.416 331 780.716 328.1 770.516 322.3C760.316 316.5 752.516 308.5 747.116 298.3C741.716 287.9 738.716 276.1 738.116 262.9C737.916 259.5 737.816 255.2 737.816 250C737.816 244.6 737.916 240.3 738.116 237.1C738.716 223.7 741.716 211.9 747.116 201.7C752.716 191.5 760.616 183.5 770.816 177.7C781.016 171.9 793.616 169 808.616 169C823.616 169 836.216 171.9 846.416 177.7C856.616 183.5 864.416 191.5 869.816 201.7C875.416 211.9 878.516 223.7 879.116 237.1C879.316 240.3 879.416 244.6 879.416 250C879.416 255.2 879.316 259.5 879.116 262.9C878.516 276.1 875.516 287.9 870.116 298.3C864.716 308.5 856.916 316.5 846.716 322.3C836.516 328.1 823.816 331 808.616 331ZM808.616 307.9C821.016 307.9 830.916 304 838.316 296.2C845.716 288.2 849.716 276.6 850.316 261.4C850.516 258.4 850.616 254.6 850.616 250C850.616 245.4 850.516 241.6 850.316 238.6C849.716 223.4 845.716 211.9 838.316 204.1C830.916 196.1 821.016 192.1 808.616 192.1C796.216 192.1 786.216 196.1 778.616 204.1C771.216 211.9 767.316 223.4 766.916 238.6C766.716 241.6 766.616 245.4 766.616 250C766.616 254.6 766.716 258.4 766.916 261.4C767.316 276.6 771.216 288.2 778.616 296.2C786.216 304 796.216 307.9 808.616 307.9ZM930.481 385C928.481 385 926.881 384.3 925.681 382.9C924.281 381.7 923.581 380.1 923.581 378.1V367.9C923.581 365.9 924.281 364.2 925.681 362.8C926.881 361.6 928.481 361 930.481 361H934.681C941.881 361 947.181 359.6 950.581 356.8C953.981 354.2 956.181 350.7 957.181 346.3C958.381 341.9 958.981 336.9 958.981 331.3V178.9C958.981 176.9 959.581 175.3 960.781 174.1C962.181 172.7 963.881 172 965.881 172H980.581C982.581 172 984.181 172.7 985.381 174.1C986.781 175.3 987.481 176.9 987.481 178.9V331.6C987.481 342.2 985.781 351.5 982.381 359.5C979.181 367.5 973.881 373.7 966.481 378.1C959.081 382.7 948.981 385 936.181 385H930.481ZM963.481 142.9C961.481 142.9 959.781 142.3 958.381 141.1C957.181 139.7 956.581 138 956.581 136V119.8C956.581 117.8 957.181 116.2 958.381 115C959.781 113.6 961.481 112.9 963.481 112.9H982.681C984.681 112.9 986.381 113.6 987.781 115C989.181 116.2 989.881 117.8 989.881 119.8V136C989.881 138 989.181 139.7 987.781 141.1C986.381 142.3 984.681 142.9 982.681 142.9H963.481ZM1133.84 331C1113.24 331 1096.84 324.7 1084.64 312.1C1072.44 299.3 1065.74 281.9 1064.54 259.9C1064.34 257.3 1064.24 254 1064.24 250C1064.24 245.8 1064.34 242.4 1064.54 239.8C1065.34 225.6 1068.64 213.2 1074.44 202.6C1080.24 191.8 1088.14 183.5 1098.14 177.7C1108.34 171.9 1120.24 169 1133.84 169C1149.04 169 1161.74 172.2 1171.94 178.6C1182.34 185 1190.24 194.1 1195.64 205.9C1201.04 217.7 1203.74 231.5 1203.74 247.3V252.4C1203.74 254.6 1203.04 256.3 1201.64 257.5C1200.44 258.7 1198.84 259.3 1196.84 259.3H1093.04C1093.04 259.5 1093.04 259.9 1093.04 260.5C1093.04 261.1 1093.04 261.6 1093.04 262C1093.44 270.2 1095.24 277.9 1098.44 285.1C1101.64 292.1 1106.24 297.8 1112.24 302.2C1118.24 306.6 1125.44 308.8 1133.84 308.8C1141.04 308.8 1147.04 307.7 1151.84 305.5C1156.64 303.3 1160.54 300.9 1163.54 298.3C1166.54 295.5 1168.54 293.4 1169.54 292C1171.34 289.4 1172.74 287.9 1173.74 287.5C1174.74 286.9 1176.34 286.6 1178.54 286.6H1192.94C1194.94 286.6 1196.54 287.2 1197.74 288.4C1199.14 289.4 1199.74 290.9 1199.54 292.9C1199.34 295.9 1197.74 299.6 1194.74 304C1191.74 308.2 1187.44 312.4 1181.84 316.6C1176.24 320.8 1169.44 324.3 1161.44 327.1C1153.44 329.7 1144.24 331 1133.84 331ZM1093.04 238.6H1175.24V237.7C1175.24 228.7 1173.54 220.7 1170.14 213.7C1166.94 206.7 1162.24 201.2 1156.04 197.2C1149.84 193 1142.44 190.9 1133.84 190.9C1125.24 190.9 1117.84 193 1111.64 197.2C1105.64 201.2 1101.04 206.7 1097.84 213.7C1094.64 220.7 1093.04 228.7 1093.04 237.7V238.6ZM1341.61 331C1327.41 331 1315.11 328.3 1304.71 322.9C1294.51 317.3 1286.61 309.4 1281.01 299.2C1275.41 288.8 1272.41 276.4 1272.01 262C1271.81 259 1271.71 255 1271.71 250C1271.71 245 1271.81 241 1272.01 238C1272.41 223.6 1275.41 211.3 1281.01 201.1C1286.61 190.7 1294.51 182.8 1304.71 177.4C1315.11 171.8 1327.41 169 1341.61 169C1353.21 169 1363.11 170.6 1371.31 173.8C1379.71 177 1386.61 181.1 1392.01 186.1C1397.41 191.1 1401.41 196.5 1404.01 202.3C1406.81 208.1 1408.31 213.6 1408.51 218.8C1408.71 220.8 1408.11 222.4 1406.71 223.6C1405.31 224.8 1403.61 225.4 1401.61 225.4H1387.21C1385.21 225.4 1383.71 225 1382.71 224.2C1381.71 223.2 1380.71 221.6 1379.71 219.4C1376.11 209.6 1371.21 202.7 1365.01 198.7C1358.81 194.7 1351.11 192.7 1341.91 192.7C1329.91 192.7 1320.11 196.4 1312.51 203.8C1305.11 211.2 1301.11 223.1 1300.51 239.5C1300.31 246.7 1300.31 253.7 1300.51 260.5C1301.11 277.1 1305.11 289.1 1312.51 296.5C1320.11 303.7 1329.91 307.3 1341.91 307.3C1351.11 307.3 1358.81 305.3 1365.01 301.3C1371.21 297.3 1376.11 290.4 1379.71 280.6C1380.71 278.4 1381.71 276.9 1382.71 276.1C1383.71 275.1 1385.21 274.6 1387.21 274.6H1401.61C1403.61 274.6 1405.31 275.2 1406.71 276.4C1408.11 277.6 1408.71 279.2 1408.51 281.2C1408.31 285.4 1407.41 289.7 1405.81 294.1C1404.21 298.5 1401.61 303 1398.01 307.6C1394.61 312 1390.31 316 1385.11 319.6C1379.91 323 1373.61 325.8 1366.21 328C1359.01 330 1350.81 331 1341.61 331ZM1544.04 328C1532.84 328 1523.74 325.9 1516.74 321.7C1509.74 317.3 1504.64 311.2 1501.44 303.4C1498.24 295.4 1496.64 286 1496.64 275.2V196H1473.24C1471.24 196 1469.54 195.4 1468.14 194.2C1466.94 192.8 1466.34 191.1 1466.34 189.1V178.9C1466.34 176.9 1466.94 175.3 1468.14 174.1C1469.54 172.7 1471.24 172 1473.24 172H1496.64V121.9C1496.64 119.9 1497.24 118.3 1498.44 117.1C1499.84 115.7 1501.54 115 1503.54 115H1517.64C1519.64 115 1521.24 115.7 1522.44 117.1C1523.84 118.3 1524.54 119.9 1524.54 121.9V172H1561.74C1563.74 172 1565.34 172.7 1566.54 174.1C1567.94 175.3 1568.64 176.9 1568.64 178.9V189.1C1568.64 191.1 1567.94 192.8 1566.54 194.2C1565.34 195.4 1563.74 196 1561.74 196H1524.54V273.1C1524.54 282.5 1526.14 289.9 1529.34 295.3C1532.54 300.7 1538.24 303.4 1546.44 303.4H1564.74C1566.74 303.4 1568.34 304.1 1569.54 305.5C1570.94 306.7 1571.64 308.3 1571.64 310.3V321.1C1571.64 323.1 1570.94 324.8 1569.54 326.2C1568.34 327.4 1566.74 328 1564.74 328H1544.04Z" fill="#F1F1F1"/>
</svg>
