<svg width="79" height="69" viewBox="0 0 79 69" fill="none" xmlns="http://www.w3.org/2000/svg">
<path d="M26.8555 34.1797H14.6484V24.4141C14.6484 19.0277 19.0277 14.6484 24.4141 14.6484H25.6347C27.6641 14.6484 29.2969 13.0158 29.2969 10.9862V3.66219C29.2969 1.63281 27.6642 0 25.6347 0H24.4141C10.9253 0 0 10.9253 0 24.4141V61.0352C0 65.0788 3.28063 68.3594 7.32422 68.3594H26.8555C30.8991 68.3594 34.1797 65.0788 34.1797 61.0352V41.5039C34.1797 37.4603 30.8991 34.1797 26.8555 34.1797Z" fill="#333333"/>
<path d="M70.8008 34.1797H58.5938V24.4141C58.5938 19.0277 62.973 14.6484 68.3594 14.6484H69.58C71.6094 14.6484 73.2422 13.0158 73.2422 10.9862V3.66219C73.2422 1.63281 71.6095 0 69.58 0H68.3594C54.8706 0 43.9453 10.9253 43.9453 24.4141V61.0352C43.9453 65.0788 47.2259 68.3594 51.2695 68.3594H70.8008C74.8444 68.3594 78.125 65.0788 78.125 61.0352V41.5039C78.125 37.4603 74.8444 34.1797 70.8008 34.1797Z" fill="#333333"/>
</svg>
