<svg width="81" height="81" viewBox="0 0 81 81" fill="none" xmlns="http://www.w3.org/2000/svg">
<path d="M53.1445 40.5391H65.3516V50.3047C65.3516 55.6911 60.9723 60.0703 55.5859 60.0703H54.3653C52.3359 60.0703 50.7031 61.703 50.7031 63.7325V71.0566C50.7031 73.0859 52.3358 74.7188 54.3653 74.7188H55.5859C69.0747 74.7188 80 63.7934 80 50.3047V13.6836C80 9.64 76.7194 6.35938 72.6758 6.35938H53.1445C49.1009 6.35938 45.8203 9.64 45.8203 13.6836V33.2148C45.8203 37.2584 49.1009 40.5391 53.1445 40.5391Z" fill="#333333"/>
<path d="M9.19922 40.5391H21.4062V50.3047C21.4062 55.6911 17.027 60.0703 11.6406 60.0703H10.42C8.39062 60.0703 6.75781 61.703 6.75781 63.7325V71.0566C6.75781 73.0859 8.39047 74.7188 10.42 74.7188H11.6406C25.1294 74.7188 36.0547 63.7934 36.0547 50.3047V13.6836C36.0547 9.64 32.7741 6.35938 28.7305 6.35938H9.19922C5.15563 6.35938 1.875 9.64 1.875 13.6836V33.2148C1.875 37.2584 5.15563 40.5391 9.19922 40.5391Z" fill="#333333"/>
</svg>
