<svg width="20" height="21" viewBox="0 0 20 21" fill="none" xmlns="http://www.w3.org/2000/svg">
<g clip-path="url(#clip0_22_8587)">
<path d="M10.3025 12.9558C10.3025 11.4158 9.57 10.2775 8.05667 9.85083C9.16083 9.325 9.73667 8.52833 9.73667 7.28917C9.73667 4.84583 7.91 4.25 5.8025 4.25H0V16.5175H5.965C8.20167 16.5175 10.3025 15.4483 10.3025 12.9558ZM2.705 6.34417H5.24333C6.21917 6.34417 7.0975 6.6175 7.0975 7.74583C7.0975 8.7875 6.41417 9.20667 5.4475 9.20667H2.705V6.34417ZM2.70417 14.4342V11.0558H5.6525C6.84333 11.0558 7.59667 11.5508 7.59667 12.8075C7.59667 14.0467 6.6975 14.4342 5.59667 14.4342H2.70417Z" fill="#333333"/>
<path d="M15.6635 16.7498C17.7918 16.7498 19.1702 15.7939 19.8335 13.7623H17.6735C17.441 14.5206 16.4827 14.9214 15.7393 14.9214C14.3052 14.9214 13.5518 14.0839 13.5518 12.6606H19.9793C20.1827 9.81227 18.596 7.38477 15.6627 7.38477C12.9468 7.38477 11.1035 9.41977 11.1035 12.0856C11.1035 14.8523 12.8502 16.7498 15.6635 16.7498V16.7498ZM15.5868 9.2281C16.816 9.2281 17.4343 9.9481 17.5377 11.1256H13.5552C13.636 9.9581 14.4135 9.2281 15.5868 9.2281Z" fill="#333333"/>
<path d="M13.0557 4.89453H18.0457V6.10286H13.0557V4.89453Z" fill="#333333"/>
</g>
<defs>
<clipPath id="clip0_22_8587">
<rect width="20" height="20" fill="white" transform="translate(0 0.5)"/>
</clipPath>
</defs>
</svg>
