<svg width="32" height="32" viewBox="0 0 32 32" fill="none" xmlns="http://www.w3.org/2000/svg">
<g clip-path="url(#clip0_22_8641)">
<path d="M16.484 19.9293C16.484 17.4653 15.312 15.644 12.8907 14.9613C14.6573 14.12 15.5787 12.8453 15.5787 10.8627C15.5787 6.95333 12.656 6 9.284 6H0V25.628H9.544C13.1227 25.628 16.484 23.9173 16.484 19.9293ZM4.328 9.35067H8.38933C9.95067 9.35067 11.356 9.788 11.356 11.5933C11.356 13.26 10.2627 13.9307 8.716 13.9307H4.328V9.35067ZM4.32667 22.2947V16.8893H9.044C10.9493 16.8893 12.1547 17.6813 12.1547 19.692C12.1547 21.6747 10.716 22.2947 8.95467 22.2947H4.32667Z" fill="white"/>
<path d="M25.0616 26.0001C28.467 26.0001 30.6723 24.4708 31.7336 21.2201H28.2776C27.9056 22.4334 26.3723 23.0748 25.183 23.0748C22.8883 23.0748 21.683 21.7348 21.683 19.4574H31.967C32.2923 14.9001 29.7536 11.0161 25.0603 11.0161C20.715 11.0161 17.7656 14.2721 17.7656 18.5374C17.7656 22.9641 20.5603 26.0001 25.0616 26.0001ZM24.939 13.9654C26.9056 13.9654 27.895 15.1174 28.0603 17.0014H21.6883C21.8176 15.1334 23.0616 13.9654 24.939 13.9654Z" fill="white"/>
<path d="M20.8896 7.03076H28.8736V8.9641H20.8896V7.03076Z" fill="white"/>
</g>
<defs>
<clipPath id="clip0_22_8641">
<rect width="32" height="32" fill="white"/>
</clipPath>
</defs>
</svg>
