<svg width="20" height="21" viewBox="0 0 20 21" fill="none" xmlns="http://www.w3.org/2000/svg">
<g clip-path="url(#clip0_22_8593)">
<path d="M10 0.5C4.48625 0.5 0 4.98625 0 10.5C0 16.0137 4.48625 20.5 10 20.5C15.5137 20.5 20 16.0137 20 10.5C20 4.98625 15.5137 0.5 10 0.5ZM10 19.25C5.175 19.25 1.25 15.3237 1.25 10.5C1.25 5.675 5.175 1.75 10 1.75C14.8237 1.75 18.75 5.675 18.75 10.5C18.75 15.3237 14.8237 19.25 10 19.25Z" fill="#333333"/>
<path d="M10.0003 3C9.47527 3 8.96277 3.055 8.46777 3.1575C9.37777 4.4475 10.204 5.79 10.9315 7.18125C12.3078 6.54 13.6028 5.7125 14.7853 4.725C13.4865 3.6475 11.819 3 10.0003 3Z" fill="#333333"/>
<path d="M15.6764 5.60742C14.3902 6.69117 12.9752 7.58992 11.4727 8.29242C11.8014 8.97742 12.1064 9.67117 12.3889 10.3762C14.0489 10.0349 15.7764 10.0037 17.4889 10.2874C17.4389 8.49992 16.7664 6.86992 15.6764 5.60742Z" fill="#333333"/>
<path d="M7.21297 3.54102C4.96172 4.44352 3.25422 6.40352 2.69922 8.80977C5.12672 8.91352 7.52922 8.50852 9.76547 7.65477C9.01422 6.22852 8.16297 4.85352 7.21297 3.54102Z" fill="#333333"/>
<path d="M10.325 8.78613C8.16 9.62988 5.8475 10.0899 3.49625 10.0899C3.1725 10.0899 2.8475 10.0699 2.5225 10.0524C2.51375 10.2011 2.5 10.3486 2.5 10.4999C2.5 12.3411 3.16625 14.0261 4.2675 15.3311C6.06875 13.0949 8.49 11.4924 11.17 10.6874C10.9087 10.0449 10.6262 9.41238 10.325 8.78613Z" fill="#333333"/>
<path d="M12.8477 11.5603C13.4439 13.2228 13.9114 14.9316 14.2539 16.6741C15.9439 15.5078 17.1239 13.6666 17.4202 11.5391C15.8877 11.2678 14.3389 11.2803 12.8477 11.5603Z" fill="#333333"/>
<path d="M11.6203 11.8496C9.10027 12.5859 6.82402 14.0984 5.15527 16.2196C6.46277 17.3284 8.15152 17.9996 10.0003 17.9996C11.1103 17.9996 12.1615 17.7521 13.109 17.3184C12.7653 15.4509 12.2653 13.6234 11.6203 11.8496Z" fill="#333333"/>
</g>
<defs>
<clipPath id="clip0_22_8593">
<rect width="20" height="20" fill="white" transform="translate(0 0.5)"/>
</clipPath>
</defs>
</svg>
