<svg width="20" height="21" viewBox="0 0 20 21" fill="none" xmlns="http://www.w3.org/2000/svg">
<g clip-path="url(#clip0_22_8581)">
<path d="M17.6108 0.65625H2.7017C2.02661 0.65625 1.37916 0.924431 0.901796 1.4018C0.424431 1.87916 0.15625 2.52661 0.15625 3.2017V18.1108C0.15625 18.7859 0.424431 19.4333 0.901796 19.9107C1.37916 20.3881 2.02661 20.6563 2.7017 20.6563H10.0049V12.3346H8.34057V9.00598H9.99111V7.50171C9.99111 6.14025 10.6397 4.01325 13.4938 4.01325L16.0649 4.02357V6.87543H14.1978C13.8942 6.87543 13.4622 7.02661 13.4622 7.67507V9.00621H16.1074L15.8038 12.3348H13.3335V20.6563H17.6108C17.9451 20.6563 18.2761 20.5904 18.5849 20.4625C18.8937 20.3346 19.1743 20.1471 19.4107 19.9107C19.6471 19.6743 19.8346 19.3937 19.9625 19.0849C20.0904 18.7761 20.1563 18.4451 20.1563 18.1108V3.2017C20.1563 2.86743 20.0904 2.53643 19.9625 2.2276C19.8346 1.91877 19.6471 1.63816 19.4107 1.4018C19.1743 1.16543 18.8937 0.977932 18.5849 0.850011C18.2761 0.72209 17.9451 0.65625 17.6108 0.65625V0.65625Z" fill="#333333"/>
</g>
<defs>
<clipPath id="clip0_22_8581">
<rect width="20" height="20" fill="white" transform="translate(0 0.5)"/>
</clipPath>
</defs>
</svg>
