<svg width="32" height="32" viewBox="0 0 32 32" fill="none" xmlns="http://www.w3.org/2000/svg">
<g clip-path="url(#clip0_22_8635)">
<path d="M28.1773 0.25H4.32273C3.24257 0.25 2.20666 0.67909 1.44287 1.44287C0.67909 2.20666 0.25 3.24257 0.25 4.32273V28.1773C0.25 29.2574 0.67909 30.2933 1.44287 31.0571C2.20666 31.8209 3.24257 32.25 4.32273 32.25H16.0078V18.9354H13.3449V13.6096H15.9858V11.2027C15.9858 9.0244 17.0235 5.6212 21.5901 5.6212L25.7039 5.63771V10.2007H22.7164C22.2307 10.2007 21.5395 10.4426 21.5395 11.4801V13.6099H25.7718L25.286 18.9357H21.3336V32.25H28.1773C28.7121 32.25 29.2417 32.1447 29.7358 31.94C30.23 31.7353 30.6789 31.4353 31.0571 31.0571C31.4353 30.6789 31.7353 30.23 31.94 29.7358C32.1447 29.2417 32.25 28.7121 32.25 28.1773V4.32273C32.25 3.78789 32.1447 3.25829 31.94 2.76416C31.7353 2.27004 31.4353 1.82106 31.0571 1.44287C30.6789 1.06469 30.23 0.764691 29.7358 0.560018C29.2417 0.355344 28.7121 0.25 28.1773 0.25Z" fill="white"/>
</g>
<defs>
<clipPath id="clip0_22_8635">
<rect width="32" height="32" fill="white"/>
</clipPath>
</defs>
</svg>
