<svg width="32" height="32" viewBox="0 0 32 32" fill="none" xmlns="http://www.w3.org/2000/svg">
<g clip-path="url(#clip0_22_8637)">
<path d="M28.8 0H3.2C1.44 0 0 1.44 0 3.2V28.8C0 30.56 1.44 32 3.2 32H28.8C30.56 32 32 30.56 32 28.8V3.2C32 1.44 30.56 0 28.8 0ZM9.6 27.2H4.8V12.8H9.6V27.2ZM7.2 10.08C5.6 10.08 4.32 8.8 4.32 7.2C4.32 5.6 5.6 4.32 7.2 4.32C8.8 4.32 10.08 5.6 10.08 7.2C10.08 8.8 8.8 10.08 7.2 10.08ZM27.2 27.2H22.4V18.72C22.4 17.4401 21.28 16.32 20 16.32C18.72 16.32 17.6 17.4401 17.6 18.72V27.2H12.8V12.8H17.6V14.72C18.4 13.44 20.16 12.48 21.6 12.48C24.64 12.48 27.2 15.04 27.2 18.08V27.2Z" fill="white"/>
</g>
<defs>
<clipPath id="clip0_22_8637">
<rect width="32" height="32" fill="white"/>
</clipPath>
</defs>
</svg>
