<svg width="20" height="21" viewBox="0 0 20 21" fill="none" xmlns="http://www.w3.org/2000/svg">
<path d="M17.9805 5.54C17.3805 5.8 16.7605 5.98 16.1005 6.06C16.7805 5.66 17.3005 5.02 17.5405 4.24C16.9005 4.62 16.2005 4.88 15.4605 5.04C14.8605 4.4 14.0005 4 13.0605 4C11.2405 4 9.78047 5.48 9.78047 7.28C9.78047 7.54 9.80047 7.78 9.86047 8.02C7.14047 7.9 4.74047 6.58 3.12047 4.6C1.96047 6.68 3.26047 8.4 4.12047 8.98C3.60047 8.98 3.08047 8.82 2.64047 8.58C2.64047 10.2 3.78047 11.54 5.26047 11.84C4.94047 11.94 4.22047 12 3.78047 11.9C4.20047 13.2 5.42047 14.16 6.84047 14.18C5.72047 15.06 4.08047 15.76 1.98047 15.54C3.44047 16.48 5.16047 17.02 7.02047 17.02C13.0605 17.02 16.3405 12.02 16.3405 7.7C16.3405 7.56 16.3405 7.42 16.3205 7.28C17.0005 6.78 17.5605 6.2 17.9805 5.54V5.54Z" fill="#333333"/>
</svg>
